<svg width="156" height="38" viewBox="0 0 156 38" fill="none" xmlns="http://www.w3.org/2000/svg">
<path d="M11.2655 29.9396C10.0276 29.9396 8.91351 29.7274 7.92321 29.303C6.93291 28.8609 6.15482 28.2419 5.58893 27.4462C5.02304 26.6504 4.7401 25.722 4.7401 24.6609H7.97626C8.047 25.4567 8.35647 26.111 8.90467 26.6238C9.47056 27.1367 10.2575 27.3931 11.2655 27.3931C12.3088 27.3931 13.1223 27.1455 13.7059 26.6504C14.2894 26.1375 14.5812 25.4832 14.5812 24.6875C14.5812 24.0685 14.3955 23.5645 14.0242 23.1755C13.6705 22.7864 13.2196 22.4858 12.6713 22.2736C12.1408 22.0614 11.3981 21.8315 10.4432 21.5839C9.24066 21.2656 8.25921 20.9473 7.4988 20.629C6.75607 20.293 6.11945 19.7802 5.58893 19.0905C5.05841 18.4008 4.79315 17.4813 4.79315 16.3318C4.79315 15.2708 5.05841 14.3424 5.58893 13.5466C6.11945 12.7508 6.86217 12.1407 7.81711 11.7163C8.77204 11.2919 9.87729 11.0797 11.1328 11.0797C12.9189 11.0797 14.3778 11.5306 15.5096 12.4325C16.6591 13.3167 17.2957 14.5369 17.4195 16.0931H14.0772C14.0242 15.4211 13.7059 14.8463 13.1223 14.3689C12.5387 13.8914 11.7695 13.6527 10.8145 13.6527C9.94802 13.6527 9.24066 13.8737 8.69246 14.3158C8.14426 14.7579 7.87016 15.3945 7.87016 16.2257C7.87016 16.7916 8.03816 17.2602 8.37415 17.6316C8.72783 17.9852 9.16993 18.2682 9.70045 18.4804C10.231 18.6926 10.956 18.9225 11.8756 19.1701C13.0958 19.5061 14.0861 19.8421 14.8465 20.1781C15.6246 20.514 16.2789 21.0357 16.8094 21.7431C17.3576 22.4328 17.6317 23.3612 17.6317 24.5283C17.6317 25.4656 17.3753 26.3497 16.8624 27.1809C16.3673 28.012 15.6334 28.684 14.6608 29.1969C13.7059 29.692 12.5741 29.9396 11.2655 29.9396ZM24.2238 17.2867C24.7366 16.6147 25.4351 16.0489 26.3193 15.5891C27.2035 15.1293 28.2027 14.8994 29.3168 14.8994C30.59 14.8994 31.7483 15.2177 32.7917 15.8543C33.8527 16.4733 34.6838 17.3486 35.2851 18.4804C35.8864 19.6122 36.187 20.9119 36.187 22.3797C36.187 23.8475 35.8864 25.1649 35.2851 26.3321C34.6838 27.4815 33.8527 28.3834 32.7917 29.0377C31.7483 29.6743 30.59 29.9926 29.3168 29.9926C28.2027 29.9926 27.2124 29.7716 26.3459 29.3295C25.4794 28.8697 24.772 28.3038 24.2238 27.6318V36.7037H21.1998V15.1381H24.2238V17.2867ZM33.11 22.3797C33.11 21.3717 32.8978 20.5052 32.4734 19.7802C32.0666 19.0374 31.5184 18.4804 30.8287 18.109C30.1568 17.72 29.4317 17.5255 28.6536 17.5255C27.8932 17.5255 27.1682 17.72 26.4785 18.109C25.8065 18.4981 25.2583 19.064 24.8339 19.8067C24.4272 20.5494 24.2238 21.4248 24.2238 22.4328C24.2238 23.4407 24.4272 24.3249 24.8339 25.0853C25.2583 25.8281 25.8065 26.394 26.4785 26.783C27.1682 27.1721 27.8932 27.3666 28.6536 27.3666C29.4317 27.3666 30.1568 27.1721 30.8287 26.783C31.5184 26.3763 32.0666 25.7927 32.4734 25.0323C32.8978 24.2719 33.11 23.3877 33.11 22.3797ZM52.5729 22.0879C52.5729 22.6361 52.5376 23.1313 52.4668 23.5734H41.2994C41.3879 24.7405 41.8211 25.6778 42.5992 26.3851C43.3773 27.0925 44.3322 27.4462 45.464 27.4462C47.0909 27.4462 48.2404 26.7653 48.9124 25.4037H52.1751C51.733 26.7476 50.9283 27.8529 49.7612 28.7194C48.6117 29.5682 47.1793 29.9926 45.464 29.9926C44.067 29.9926 42.8114 29.6832 41.6973 29.0642C40.6009 28.4276 39.7344 27.5434 39.0978 26.4116C38.4788 25.2622 38.1694 23.9359 38.1694 22.4328C38.1694 20.9296 38.47 19.6122 39.0713 18.4804C39.6902 17.3309 40.5479 16.4467 41.6443 15.8278C42.7584 15.2089 44.0316 14.8994 45.464 14.8994C46.8434 14.8994 48.0724 15.2 49.1511 15.8013C50.2298 16.4025 51.0698 17.2514 51.6711 18.3478C52.2723 19.4265 52.5729 20.6732 52.5729 22.0879ZM49.4164 21.133C49.3987 20.0189 49.0008 19.1259 48.2227 18.4539C47.4446 17.7819 46.4808 17.4459 45.3314 17.4459C44.288 17.4459 43.395 17.7819 42.6523 18.4539C41.9095 19.1082 41.4674 20.0012 41.326 21.133H49.4164ZM62.923 14.8994C64.0725 14.8994 65.0981 15.1381 66 15.6156C66.9196 16.0931 67.6358 16.8004 68.1486 17.7377C68.6615 18.6749 68.9179 19.8067 68.9179 21.133V29.7539H65.9205V21.5839C65.9205 20.2753 65.5933 19.2762 64.939 18.5865C64.2847 17.8791 63.3916 17.5255 62.2599 17.5255C61.1281 17.5255 60.2262 17.8791 59.5542 18.5865C58.8999 19.2762 58.5728 20.2753 58.5728 21.5839V29.7539H55.5488V15.1381H58.5728V16.8093C59.0679 16.208 59.6957 15.7394 60.4561 15.4034C61.2342 15.0674 62.0565 14.8994 62.923 14.8994ZM71.7671 22.3797C71.7671 20.9119 72.0678 19.6122 72.669 18.4804C73.288 17.3486 74.1191 16.4733 75.1624 15.8543C76.2235 15.2177 77.3995 14.8994 78.6904 14.8994C79.6453 14.8994 80.5826 15.1116 81.5021 15.536C82.4394 15.9428 83.1821 16.491 83.7303 17.1806V10.1247H86.7808V29.7539H83.7303V27.5523C83.2352 28.2596 82.5455 28.8432 81.6613 29.303C80.7948 29.7627 79.7956 29.9926 78.6639 29.9926C77.3906 29.9926 76.2235 29.6743 75.1624 29.0377C74.1191 28.3834 73.288 27.4815 72.669 26.3321C72.0678 25.1649 71.7671 23.8475 71.7671 22.3797ZM83.7303 22.4328C83.7303 21.4248 83.5181 20.5494 83.0937 19.8067C82.687 19.064 82.1476 18.4981 81.4756 18.109C80.8036 17.72 80.0786 17.5255 79.3005 17.5255C78.5224 17.5255 77.7974 17.72 77.1254 18.109C76.4534 18.4804 75.9052 19.0374 75.4808 19.7802C75.074 20.5052 74.8707 21.3717 74.8707 22.3797C74.8707 23.3877 75.074 24.2719 75.4808 25.0323C75.9052 25.7927 76.4534 26.3763 77.1254 26.783C77.815 27.1721 78.5401 27.3666 79.3005 27.3666C80.0786 27.3666 80.8036 27.1721 81.4756 26.783C82.1476 26.394 82.687 25.8281 83.0937 25.0853C83.5181 24.3249 83.7303 23.4407 83.7303 22.4328Z" fill="black"/>
<path d="M114.759 11.3184L109.294 29.7539H105.872L102 15.8013L97.8881 29.7539L94.4928 29.7804L89.2672 11.3184H92.4768L96.2966 26.3321L100.435 11.3184H103.83L107.676 26.2525L111.522 11.3184H114.759ZM118.791 13.2017C118.243 13.2017 117.783 13.0161 117.412 12.6447C117.04 12.2733 116.855 11.8136 116.855 11.2653C116.855 10.7171 117.04 10.2574 117.412 9.886C117.783 9.51464 118.243 9.32896 118.791 9.32896C119.322 9.32896 119.773 9.51464 120.144 9.886C120.515 10.2574 120.701 10.7171 120.701 11.2653C120.701 11.8136 120.515 12.2733 120.144 12.6447C119.773 13.0161 119.322 13.2017 118.791 13.2017ZM120.277 15.1381V29.7539H117.253V15.1381H120.277ZM129.552 29.9926C128.403 29.9926 127.368 29.7893 126.448 29.3825C125.547 28.9581 124.83 28.3922 124.3 27.6849C123.769 26.9598 123.486 26.1552 123.451 25.271H126.581C126.634 25.89 126.926 26.4116 127.456 26.8361C128.005 27.2428 128.685 27.4462 129.499 27.4462C130.348 27.4462 131.002 27.287 131.462 26.9687C131.939 26.6327 132.178 26.2083 132.178 25.6954C132.178 25.1472 131.913 24.7405 131.382 24.4753C130.869 24.21 130.047 23.9182 128.915 23.5999C127.819 23.2993 126.926 23.0075 126.236 22.7245C125.547 22.4416 124.945 22.0083 124.432 21.4248C123.937 20.8412 123.69 20.0719 123.69 19.117C123.69 18.3389 123.92 17.6316 124.379 16.9949C124.839 16.3406 125.493 15.8278 126.342 15.4564C127.209 15.0851 128.199 14.8994 129.313 14.8994C130.976 14.8994 132.311 15.3238 133.319 16.1726C134.344 17.0038 134.893 18.1444 134.963 19.5945H131.939C131.886 18.9402 131.621 18.4185 131.144 18.0295C130.666 17.6404 130.021 17.4459 129.207 17.4459C128.411 17.4459 127.801 17.5962 127.377 17.8968C126.952 18.1975 126.74 18.5953 126.74 19.0905C126.74 19.4795 126.882 19.8067 127.165 20.0719C127.448 20.3372 127.792 20.5494 128.199 20.7086C128.606 20.85 129.207 21.0357 130.003 21.2656C131.064 21.5486 131.93 21.8403 132.602 22.141C133.292 22.4239 133.885 22.8483 134.38 23.4142C134.875 23.9801 135.131 24.7317 135.149 25.6689C135.149 26.5001 134.919 27.2428 134.459 27.8971C133.999 28.5514 133.345 29.0642 132.496 29.4356C131.665 29.807 130.684 29.9926 129.552 29.9926ZM151.812 22.0879C151.812 22.6361 151.777 23.1313 151.706 23.5734H140.538C140.627 24.7405 141.06 25.6778 141.838 26.3851C142.616 27.0925 143.571 27.4462 144.703 27.4462C146.33 27.4462 147.479 26.7653 148.151 25.4037H151.414C150.972 26.7476 150.167 27.8529 149 28.7194C147.851 29.5682 146.418 29.9926 144.703 29.9926C143.306 29.9926 142.05 29.6832 140.936 29.0642C139.84 28.4276 138.973 27.5434 138.337 26.4116C137.718 25.2622 137.408 23.9359 137.408 22.4328C137.408 20.9296 137.709 19.6122 138.31 18.4804C138.929 17.3309 139.787 16.4467 140.883 15.8278C141.997 15.2089 143.271 14.8994 144.703 14.8994C146.082 14.8994 147.311 15.2 148.39 15.8013C149.469 16.4025 150.309 17.2514 150.91 18.3478C151.511 19.4265 151.812 20.6732 151.812 22.0879ZM148.655 21.133C148.638 20.0189 148.24 19.1259 147.462 18.4539C146.684 17.7819 145.72 17.4459 144.57 17.4459C143.527 17.4459 142.634 17.7819 141.891 18.4539C141.149 19.1082 140.706 20.0012 140.565 21.133H148.655Z" fill="#065AD8"/>
</svg>
