<svg width="691" height="1024" viewBox="0 0 691 1024" fill="none" xmlns="http://www.w3.org/2000/svg">
<g clip-path="url(#clip0_1_111)">
<rect width="691" height="1024" fill="#065AD8"/>
<rect x="280.923" y="-207.652" width="227.305" height="767.832" transform="rotate(-34.3782 280.923 -207.652)" fill="#065AD8"/>
<rect x="280.923" y="-207.652" width="227.305" height="767.832" transform="rotate(-34.3782 280.923 -207.652)" fill="#065AD8"/>
<rect x="280.923" y="-207.652" width="227.305" height="767.832" transform="rotate(-34.3782 280.923 -207.652)" fill="#0D54BD"/>
<rect x="176.033" y="-12.6049" width="227.305" height="951.196" transform="rotate(-34.3782 176.033 -12.6049)" fill="#065AD8"/>
<rect x="176.033" y="-12.6049" width="227.305" height="951.196" transform="rotate(-34.3782 176.033 -12.6049)" fill="#065AD8"/>
<rect x="176.033" y="-12.6049" width="227.305" height="951.196" transform="rotate(-34.3782 176.033 -12.6049)" fill="#0D58C8"/>
<rect x="-72" y="68.3487" width="306.302" height="1231.42" transform="rotate(-34.3782 -72 68.3487)" fill="#065AD8"/>
<rect x="-72" y="68.3487" width="306.302" height="1231.42" transform="rotate(-34.3782 -72 68.3487)" fill="#065AD8"/>
<rect x="-72" y="68.3487" width="306.302" height="1231.42" transform="rotate(-34.3782 -72 68.3487)" fill="#065AD8"/>
<path d="M378.003 67L410.006 99.6395H346L378.003 67Z" fill="#0872E3"/>
<path d="M378.003 67L410.006 99.6395H346L378.003 67Z" fill="#0872E3"/>
<path d="M378.003 67L410.006 99.6395H346L378.003 67Z" fill="#0872E3" fill-opacity="0.56"/>
<path d="M378.035 132L410.038 99.3605H346.032L378.035 132Z" fill="#0872E3"/>
<path d="M378.035 132L410.038 99.3605H346.032L378.035 132Z" fill="#0872E3"/>
<path d="M378.035 132L410.038 99.3605H346.032L378.035 132Z" fill="#0872E3" fill-opacity="0.56"/>
<path d="M619.901 524.797L778.001 589.576L636.145 694.88L619.901 524.797Z" fill="#0872E3"/>
<circle cx="84.5" cy="895.5" r="224.5" fill="#0872E3"/>
</g>
<path d="M161.2 510.985L153.379 525.938V535H150.244V525.938L142.388 510.985H145.868L151.794 523.147L157.72 510.985H161.2ZM172.742 535.31C170.974 535.31 169.366 534.908 167.919 534.104C166.494 533.3 165.369 532.163 164.542 530.693C163.738 529.2 163.336 527.477 163.336 525.525C163.336 523.595 163.75 521.896 164.576 520.426C165.426 518.933 166.575 517.795 168.022 517.015C169.469 516.211 171.088 515.809 172.88 515.809C174.672 515.809 176.291 516.211 177.738 517.015C179.185 517.795 180.322 518.921 181.149 520.391C181.999 521.861 182.424 523.572 182.424 525.525C182.424 527.477 181.988 529.2 181.115 530.693C180.265 532.163 179.105 533.3 177.635 534.104C176.165 534.908 174.534 535.31 172.742 535.31ZM172.742 532.554C173.868 532.554 174.924 532.29 175.912 531.761C176.9 531.233 177.692 530.44 178.29 529.384C178.91 528.327 179.22 527.041 179.22 525.525C179.22 524.009 178.921 522.723 178.324 521.666C177.727 520.609 176.946 519.828 175.981 519.323C175.016 518.795 173.971 518.531 172.846 518.531C171.697 518.531 170.641 518.795 169.676 519.323C168.734 519.828 167.976 520.609 167.402 521.666C166.828 522.723 166.54 524.009 166.54 525.525C166.54 527.064 166.816 528.362 167.367 529.418C167.942 530.475 168.7 531.267 169.641 531.796C170.583 532.301 171.617 532.554 172.742 532.554ZM203.292 516.119V535H200.156V532.209C199.559 533.174 198.721 533.932 197.641 534.483C196.585 535.011 195.413 535.276 194.127 535.276C192.657 535.276 191.336 534.977 190.164 534.38C188.993 533.76 188.063 532.841 187.374 531.623C186.707 530.406 186.374 528.924 186.374 527.179V516.119H189.475V526.765C189.475 528.626 189.946 530.061 190.888 531.072C191.83 532.06 193.116 532.554 194.747 532.554C196.424 532.554 197.745 532.037 198.709 531.003C199.674 529.97 200.156 528.465 200.156 526.49V516.119H203.292ZM211.721 519.185C212.272 518.106 213.053 517.267 214.064 516.67C215.098 516.073 216.35 515.774 217.82 515.774V519.013H216.993C213.478 519.013 211.721 520.919 211.721 524.732V535H208.586V516.119H211.721V519.185ZM233.76 519.599C234.38 518.519 235.299 517.623 236.517 516.911C237.757 516.176 239.193 515.809 240.823 515.809C242.5 515.809 244.016 516.211 245.371 517.015C246.75 517.818 247.829 518.955 248.61 520.426C249.391 521.873 249.782 523.561 249.782 525.49C249.782 527.397 249.391 529.097 248.61 530.59C247.829 532.083 246.75 533.243 245.371 534.07C244.016 534.897 242.5 535.31 240.823 535.31C239.216 535.31 237.791 534.954 236.551 534.242C235.334 533.507 234.403 532.6 233.76 531.52V543.958H230.625V516.119H233.76V519.599ZM246.577 525.49C246.577 524.066 246.29 522.826 245.716 521.769C245.142 520.713 244.361 519.909 243.373 519.357C242.408 518.806 241.34 518.531 240.169 518.531C239.02 518.531 237.952 518.818 236.964 519.392C236 519.943 235.219 520.759 234.622 521.838C234.047 522.895 233.76 524.124 233.76 525.525C233.76 526.949 234.047 528.201 234.622 529.28C235.219 530.337 236 531.153 236.964 531.727C237.952 532.278 239.02 532.554 240.169 532.554C241.34 532.554 242.408 532.278 243.373 531.727C244.361 531.153 245.142 530.337 245.716 529.28C246.29 528.201 246.577 526.938 246.577 525.49ZM271.136 524.836C271.136 525.433 271.102 526.065 271.033 526.731H255.942C256.056 528.591 256.688 530.05 257.837 531.107C259.008 532.14 260.421 532.657 262.075 532.657C263.43 532.657 264.555 532.347 265.451 531.727C266.37 531.084 267.013 530.234 267.381 529.177H270.757C270.252 530.992 269.241 532.473 267.725 533.622C266.209 534.747 264.326 535.31 262.075 535.31C260.283 535.31 258.675 534.908 257.251 534.104C255.85 533.3 254.747 532.163 253.943 530.693C253.139 529.2 252.737 527.477 252.737 525.525C252.737 523.572 253.128 521.861 253.909 520.391C254.69 518.921 255.781 517.795 257.182 517.015C258.606 516.211 260.237 515.809 262.075 515.809C263.866 515.809 265.451 516.199 266.829 516.98C268.208 517.761 269.264 518.841 269.999 520.219C270.757 521.574 271.136 523.113 271.136 524.836ZM267.898 524.181C267.898 522.987 267.633 521.965 267.105 521.115C266.577 520.242 265.853 519.587 264.934 519.151C264.039 518.691 263.039 518.462 261.937 518.462C260.352 518.462 258.997 518.967 257.871 519.978C256.769 520.988 256.137 522.389 255.976 524.181H267.898ZM278.41 519.185C278.962 518.106 279.743 517.267 280.753 516.67C281.787 516.073 283.039 515.774 284.509 515.774V519.013H283.682C280.168 519.013 278.41 520.919 278.41 524.732V535H275.275V516.119H278.41V519.185ZM294.812 535.31C293.365 535.31 292.068 535.069 290.919 534.587C289.771 534.081 288.863 533.392 288.197 532.519C287.531 531.623 287.163 530.601 287.095 529.453H290.333C290.425 530.395 290.862 531.164 291.643 531.761C292.447 532.358 293.492 532.657 294.778 532.657C295.972 532.657 296.914 532.393 297.603 531.865C298.292 531.336 298.637 530.67 298.637 529.866C298.637 529.039 298.269 528.431 297.534 528.04C296.799 527.627 295.662 527.225 294.123 526.834C292.722 526.467 291.574 526.099 290.678 525.732C289.805 525.341 289.047 524.778 288.404 524.043C287.784 523.285 287.474 522.298 287.474 521.08C287.474 520.115 287.761 519.231 288.335 518.427C288.909 517.623 289.725 516.992 290.781 516.532C291.838 516.05 293.044 515.809 294.399 515.809C296.489 515.809 298.178 516.337 299.464 517.394C300.75 518.45 301.439 519.897 301.531 521.735H298.396C298.327 520.747 297.925 519.955 297.19 519.357C296.478 518.76 295.513 518.462 294.296 518.462C293.17 518.462 292.274 518.703 291.608 519.185C290.942 519.668 290.609 520.299 290.609 521.08C290.609 521.7 290.804 522.217 291.195 522.631C291.608 523.021 292.114 523.343 292.711 523.595C293.331 523.825 294.181 524.089 295.26 524.388C296.616 524.755 297.718 525.123 298.568 525.49C299.418 525.835 300.142 526.363 300.739 527.075C301.359 527.787 301.681 528.718 301.703 529.866C301.703 530.9 301.416 531.83 300.842 532.657C300.268 533.484 299.452 534.139 298.396 534.621C297.362 535.08 296.168 535.31 294.812 535.31ZM314.364 535.31C312.596 535.31 310.988 534.908 309.541 534.104C308.116 533.3 306.991 532.163 306.164 530.693C305.36 529.2 304.958 527.477 304.958 525.525C304.958 523.595 305.372 521.896 306.199 520.426C307.048 518.933 308.197 517.795 309.644 517.015C311.091 516.211 312.71 515.809 314.502 515.809C316.294 515.809 317.913 516.211 319.36 517.015C320.807 517.795 321.944 518.921 322.771 520.391C323.621 521.861 324.046 523.572 324.046 525.525C324.046 527.477 323.61 529.2 322.737 530.693C321.887 532.163 320.727 533.3 319.257 534.104C317.787 534.908 316.156 535.31 314.364 535.31ZM314.364 532.554C315.49 532.554 316.546 532.29 317.534 531.761C318.522 531.233 319.314 530.44 319.912 529.384C320.532 528.327 320.842 527.041 320.842 525.525C320.842 524.009 320.543 522.723 319.946 521.666C319.349 520.609 318.568 519.828 317.603 519.323C316.638 518.795 315.593 518.531 314.468 518.531C313.319 518.531 312.263 518.795 311.298 519.323C310.356 519.828 309.598 520.609 309.024 521.666C308.45 522.723 308.162 524.009 308.162 525.525C308.162 527.064 308.438 528.362 308.989 529.418C309.564 530.475 310.322 531.267 311.263 531.796C312.205 532.301 313.239 532.554 314.364 532.554ZM337.368 515.774C339.665 515.774 341.526 516.475 342.95 517.876C344.374 519.254 345.086 521.252 345.086 523.871V535H341.985V524.319C341.985 522.435 341.514 521 340.572 520.012C339.631 519.001 338.344 518.496 336.713 518.496C335.06 518.496 333.739 519.013 332.751 520.047C331.786 521.08 331.304 522.585 331.304 524.56V535H328.169V516.119H331.304V518.806C331.924 517.841 332.763 517.095 333.819 516.567C334.899 516.038 336.082 515.774 337.368 515.774ZM349.036 525.49C349.036 523.561 349.427 521.873 350.208 520.426C350.989 518.955 352.057 517.818 353.412 517.015C354.79 516.211 356.318 515.809 357.995 515.809C359.648 515.809 361.084 516.165 362.301 516.877C363.519 517.589 364.426 518.485 365.023 519.564V516.119H368.193V535H365.023V531.486C364.403 532.588 363.473 533.507 362.233 534.242C361.015 534.954 359.591 535.31 357.96 535.31C356.283 535.31 354.767 534.897 353.412 534.07C352.057 533.243 350.989 532.083 350.208 530.59C349.427 529.097 349.036 527.397 349.036 525.49ZM365.023 525.525C365.023 524.101 364.736 522.86 364.162 521.804C363.588 520.747 362.807 519.943 361.819 519.392C360.854 518.818 359.786 518.531 358.615 518.531C357.443 518.531 356.375 518.806 355.41 519.357C354.446 519.909 353.676 520.713 353.102 521.769C352.528 522.826 352.241 524.066 352.241 525.49C352.241 526.938 352.528 528.201 353.102 529.28C353.676 530.337 354.446 531.153 355.41 531.727C356.375 532.278 357.443 532.554 358.615 532.554C359.786 532.554 360.854 532.278 361.819 531.727C362.807 531.153 363.588 530.337 364.162 529.28C364.736 528.201 365.023 526.949 365.023 525.525ZM376.627 509.503V535H373.492V509.503H376.627ZM408.384 524.836C408.384 525.433 408.35 526.065 408.281 526.731H393.189C393.304 528.591 393.936 530.05 395.084 531.107C396.256 532.14 397.669 532.657 399.322 532.657C400.678 532.657 401.803 532.347 402.699 531.727C403.618 531.084 404.261 530.234 404.629 529.177H408.005C407.5 530.992 406.489 532.473 404.973 533.622C403.457 534.747 401.574 535.31 399.322 535.31C397.531 535.31 395.923 534.908 394.499 534.104C393.098 533.3 391.995 532.163 391.191 530.693C390.387 529.2 389.985 527.477 389.985 525.525C389.985 523.572 390.376 521.861 391.157 520.391C391.938 518.921 393.029 517.795 394.43 517.015C395.854 516.211 397.485 515.809 399.322 515.809C401.114 515.809 402.699 516.199 404.077 516.98C405.455 517.761 406.512 518.841 407.247 520.219C408.005 521.574 408.384 523.113 408.384 524.836ZM405.145 524.181C405.145 522.987 404.881 521.965 404.353 521.115C403.825 520.242 403.101 519.587 402.182 519.151C401.286 518.691 400.287 518.462 399.185 518.462C397.6 518.462 396.244 518.967 395.119 519.978C394.016 520.988 393.385 522.389 393.224 524.181H405.145ZM422.377 535L417.898 527.971L413.591 535H410.318L416.416 525.628L410.318 516.119H413.866L418.346 523.113L422.618 516.119H425.891L419.827 525.456L425.926 535H422.377ZM432.145 519.599C432.766 518.519 433.684 517.623 434.902 516.911C436.142 516.176 437.578 515.809 439.209 515.809C440.885 515.809 442.401 516.211 443.757 517.015C445.135 517.818 446.214 518.955 446.995 520.426C447.776 521.873 448.167 523.561 448.167 525.49C448.167 527.397 447.776 529.097 446.995 530.59C446.214 532.083 445.135 533.243 443.757 534.07C442.401 534.897 440.885 535.31 439.209 535.31C437.601 535.31 436.177 534.954 434.936 534.242C433.719 533.507 432.789 532.6 432.145 531.52V543.958H429.01V516.119H432.145V519.599ZM444.963 525.49C444.963 524.066 444.675 522.826 444.101 521.769C443.527 520.713 442.746 519.909 441.758 519.357C440.794 518.806 439.725 518.531 438.554 518.531C437.405 518.531 436.337 518.818 435.35 519.392C434.385 519.943 433.604 520.759 433.007 521.838C432.432 522.895 432.145 524.124 432.145 525.525C432.145 526.949 432.432 528.201 433.007 529.28C433.604 530.337 434.385 531.153 435.35 531.727C436.337 532.278 437.405 532.554 438.554 532.554C439.725 532.554 440.794 532.278 441.758 531.727C442.746 531.153 443.527 530.337 444.101 529.28C444.675 528.201 444.963 526.938 444.963 525.49ZM469.522 524.836C469.522 525.433 469.487 526.065 469.418 526.731H454.327C454.442 528.591 455.073 530.05 456.222 531.107C457.393 532.14 458.806 532.657 460.46 532.657C461.815 532.657 462.941 532.347 463.836 531.727C464.755 531.084 465.398 530.234 465.766 529.177H469.143C468.637 530.992 467.626 532.473 466.11 533.622C464.594 534.747 462.711 535.31 460.46 535.31C458.668 535.31 457.06 534.908 455.636 534.104C454.235 533.3 453.132 532.163 452.328 530.693C451.525 529.2 451.123 527.477 451.123 525.525C451.123 523.572 451.513 521.861 452.294 520.391C453.075 518.921 454.166 517.795 455.567 517.015C456.991 516.211 458.622 515.809 460.46 515.809C462.252 515.809 463.836 516.199 465.215 516.98C466.593 517.761 467.649 518.841 468.384 520.219C469.143 521.574 469.522 523.113 469.522 524.836ZM466.283 524.181C466.283 522.987 466.019 521.965 465.49 521.115C464.962 520.242 464.238 519.587 463.32 519.151C462.424 518.691 461.425 518.462 460.322 518.462C458.737 518.462 457.382 518.967 456.256 519.978C455.154 520.988 454.522 522.389 454.361 524.181H466.283ZM482.86 515.774C485.157 515.774 487.017 516.475 488.441 517.876C489.865 519.254 490.578 521.252 490.578 523.871V535H487.477V524.319C487.477 522.435 487.006 521 486.064 520.012C485.122 519.001 483.836 518.496 482.205 518.496C480.551 518.496 479.23 519.013 478.243 520.047C477.278 521.08 476.796 522.585 476.796 524.56V535H473.66V516.119H476.796V518.806C477.416 517.841 478.254 517.095 479.311 516.567C480.39 516.038 481.573 515.774 482.86 515.774ZM502.383 535.31C500.936 535.31 499.639 535.069 498.49 534.587C497.342 534.081 496.434 533.392 495.768 532.519C495.102 531.623 494.734 530.601 494.666 529.453H497.904C497.996 530.395 498.433 531.164 499.214 531.761C500.018 532.358 501.063 532.657 502.349 532.657C503.543 532.657 504.485 532.393 505.174 531.865C505.863 531.336 506.208 530.67 506.208 529.866C506.208 529.039 505.84 528.431 505.105 528.04C504.37 527.627 503.233 527.225 501.694 526.834C500.293 526.467 499.145 526.099 498.249 525.732C497.376 525.341 496.618 524.778 495.975 524.043C495.355 523.285 495.045 522.298 495.045 521.08C495.045 520.115 495.332 519.231 495.906 518.427C496.48 517.623 497.296 516.992 498.352 516.532C499.409 516.05 500.615 515.809 501.97 515.809C504.06 515.809 505.749 516.337 507.035 517.394C508.321 518.45 509.01 519.897 509.102 521.735H505.967C505.898 520.747 505.496 519.955 504.761 519.357C504.049 518.76 503.084 518.462 501.867 518.462C500.741 518.462 499.845 518.703 499.179 519.185C498.513 519.668 498.18 520.299 498.18 521.08C498.18 521.7 498.375 522.217 498.766 522.631C499.179 523.021 499.684 523.343 500.282 523.595C500.902 523.825 501.752 524.089 502.831 524.388C504.187 524.755 505.289 525.123 506.139 525.49C506.989 525.835 507.712 526.363 508.31 527.075C508.93 527.787 509.251 528.718 509.274 529.866C509.274 530.9 508.987 531.83 508.413 532.657C507.839 533.484 507.023 534.139 505.967 534.621C504.933 535.08 503.739 535.31 502.383 535.31ZM530.928 524.836C530.928 525.433 530.894 526.065 530.825 526.731H515.733C515.848 528.591 516.48 530.05 517.628 531.107C518.8 532.14 520.213 532.657 521.866 532.657C523.222 532.657 524.347 532.347 525.243 531.727C526.162 531.084 526.805 530.234 527.172 529.177H530.549C530.044 530.992 529.033 532.473 527.517 533.622C526.001 534.747 524.117 535.31 521.866 535.31C520.075 535.31 518.467 534.908 517.043 534.104C515.642 533.3 514.539 532.163 513.735 530.693C512.931 529.2 512.529 527.477 512.529 525.525C512.529 523.572 512.92 521.861 513.701 520.391C514.482 518.921 515.573 517.795 516.974 517.015C518.398 516.211 520.029 515.809 521.866 515.809C523.658 515.809 525.243 516.199 526.621 516.98C527.999 517.761 529.056 518.841 529.791 520.219C530.549 521.574 530.928 523.113 530.928 524.836ZM527.689 524.181C527.689 522.987 527.425 521.965 526.897 521.115C526.369 520.242 525.645 519.587 524.726 519.151C523.83 518.691 522.831 518.462 521.729 518.462C520.144 518.462 518.788 518.967 517.663 519.978C516.56 520.988 515.929 522.389 515.768 524.181H527.689ZM282.767 570.703V581.832C282.767 582.751 282.962 583.405 283.353 583.796C283.743 584.163 284.421 584.347 285.386 584.347H287.694V587H284.869C283.123 587 281.814 586.598 280.941 585.794C280.068 584.99 279.632 583.669 279.632 581.832V570.703H277.185V568.119H279.632V563.364H282.767V568.119H287.694V570.703H282.767ZM294.628 571.185C295.18 570.106 295.961 569.267 296.971 568.67C298.005 568.073 299.257 567.774 300.727 567.774V571.013H299.9C296.386 571.013 294.628 572.919 294.628 576.732V587H291.493V568.119H294.628V571.185ZM303.175 577.49C303.175 575.561 303.565 573.873 304.346 572.426C305.127 570.955 306.195 569.818 307.551 569.015C308.929 568.211 310.456 567.809 312.133 567.809C313.787 567.809 315.223 568.165 316.44 568.877C317.657 569.589 318.565 570.485 319.162 571.564V568.119H322.332V587H319.162V583.486C318.542 584.588 317.611 585.507 316.371 586.242C315.154 586.954 313.73 587.31 312.099 587.31C310.422 587.31 308.906 586.897 307.551 586.07C306.195 585.243 305.127 584.083 304.346 582.59C303.565 581.097 303.175 579.397 303.175 577.49ZM319.162 577.525C319.162 576.101 318.875 574.86 318.301 573.804C317.726 572.747 316.945 571.943 315.958 571.392C314.993 570.818 313.925 570.531 312.753 570.531C311.582 570.531 310.514 570.806 309.549 571.357C308.584 571.909 307.815 572.713 307.241 573.769C306.666 574.826 306.379 576.066 306.379 577.49C306.379 578.938 306.666 580.201 307.241 581.28C307.815 582.337 308.584 583.153 309.549 583.727C310.514 584.278 311.582 584.554 312.753 584.554C313.925 584.554 314.993 584.278 315.958 583.727C316.945 583.153 317.726 582.337 318.301 581.28C318.875 580.201 319.162 578.949 319.162 577.525ZM326.459 577.525C326.459 575.572 326.849 573.873 327.63 572.426C328.411 570.955 329.491 569.818 330.869 569.015C332.27 568.211 333.867 567.809 335.658 567.809C337.978 567.809 339.885 568.371 341.378 569.497C342.894 570.622 343.893 572.184 344.375 574.183H340.999C340.677 573.034 340.046 572.127 339.104 571.461C338.185 570.795 337.037 570.462 335.658 570.462C333.867 570.462 332.42 571.082 331.317 572.322C330.214 573.54 329.663 575.274 329.663 577.525C329.663 579.799 330.214 581.556 331.317 582.796C332.42 584.037 333.867 584.657 335.658 584.657C337.037 584.657 338.185 584.335 339.104 583.692C340.023 583.049 340.654 582.13 340.999 580.936H344.375C343.87 582.865 342.859 584.416 341.343 585.587C339.827 586.736 337.932 587.31 335.658 587.31C333.867 587.31 332.27 586.908 330.869 586.104C329.491 585.3 328.411 584.163 327.63 582.693C326.849 581.223 326.459 579.5 326.459 577.525ZM359.102 587L351.694 578.662V587H348.559V561.503H351.694V576.491L358.964 568.119H363.34L354.451 577.525L363.375 587H359.102ZM383.519 576.836C383.519 577.433 383.484 578.065 383.415 578.731H368.324C368.439 580.591 369.071 582.05 370.219 583.107C371.391 584.14 372.803 584.657 374.457 584.657C375.812 584.657 376.938 584.347 377.834 583.727C378.752 583.084 379.396 582.234 379.763 581.177H383.14C382.634 582.992 381.624 584.473 380.108 585.622C378.592 586.747 376.708 587.31 374.457 587.31C372.665 587.31 371.057 586.908 369.633 586.104C368.232 585.3 367.13 584.163 366.326 582.693C365.522 581.2 365.12 579.477 365.12 577.525C365.12 575.572 365.51 573.861 366.291 572.391C367.072 570.921 368.163 569.795 369.564 569.015C370.989 568.211 372.619 567.809 374.457 567.809C376.249 567.809 377.834 568.199 379.212 568.98C380.59 569.761 381.647 570.841 382.382 572.219C383.14 573.574 383.519 575.113 383.519 576.836ZM380.28 576.181C380.28 574.987 380.016 573.965 379.487 573.115C378.959 572.242 378.236 571.587 377.317 571.151C376.421 570.691 375.422 570.462 374.319 570.462C372.734 570.462 371.379 570.967 370.254 571.978C369.151 572.988 368.519 574.389 368.358 576.181H380.28ZM390.793 571.185C391.344 570.106 392.125 569.267 393.136 568.67C394.169 568.073 395.421 567.774 396.891 567.774V571.013H396.064C392.55 571.013 390.793 572.919 390.793 576.732V587H387.657V568.119H390.793V571.185Z" fill="white"/>
<path d="M152.989 453.591C148.883 453.591 145.171 452.888 141.853 451.481C138.591 450.075 136.003 448.05 134.091 445.407C132.179 442.763 131.194 439.642 131.138 436.042H143.793C143.962 438.461 144.806 440.373 146.324 441.779C147.899 443.185 150.037 443.888 152.736 443.888C155.492 443.888 157.658 443.241 159.233 441.948C160.807 440.598 161.595 438.854 161.595 436.717C161.595 434.973 161.061 433.539 159.992 432.414C158.923 431.289 157.573 430.418 155.942 429.799C154.367 429.124 152.174 428.393 149.362 427.605C145.537 426.48 142.415 425.384 139.997 424.315C137.634 423.19 135.582 421.531 133.838 419.337C132.151 417.087 131.307 414.106 131.307 410.394C131.307 406.907 132.179 403.87 133.922 401.283C135.666 398.695 138.113 396.727 141.262 395.377C144.412 393.971 148.012 393.268 152.061 393.268C158.136 393.268 163.057 394.758 166.826 397.739C170.65 400.664 172.76 404.77 173.153 410.057H160.161C160.048 408.032 159.176 406.373 157.545 405.079C155.97 403.729 153.861 403.054 151.218 403.054C148.912 403.054 147.056 403.645 145.649 404.826C144.3 406.007 143.625 407.723 143.625 409.972C143.625 411.547 144.131 412.869 145.143 413.938C146.212 414.95 147.505 415.794 149.024 416.469C150.599 417.087 152.793 417.819 155.605 418.662C159.429 419.787 162.551 420.912 164.97 422.037C167.388 423.162 169.469 424.849 171.213 427.099C172.956 429.349 173.828 432.302 173.828 435.958C173.828 439.107 173.013 442.032 171.382 444.732C169.75 447.432 167.36 449.597 164.21 451.228C161.061 452.803 157.32 453.591 152.989 453.591ZM195.88 413.01C197.398 410.872 199.479 409.101 202.123 407.695C204.823 406.232 207.888 405.501 211.319 405.501C215.313 405.501 218.912 406.485 222.118 408.454C225.38 410.422 227.94 413.235 229.796 416.891C231.708 420.49 232.664 424.681 232.664 429.461C232.664 434.242 231.708 438.489 229.796 442.201C227.94 445.857 225.38 448.697 222.118 450.722C218.912 452.747 215.313 453.759 211.319 453.759C207.888 453.759 204.851 453.056 202.207 451.65C199.62 450.244 197.511 448.472 195.88 446.335V475.273H184.068V406.26H195.88V413.01ZM220.6 429.461C220.6 426.649 220.009 424.231 218.828 422.206C217.703 420.125 216.184 418.55 214.272 417.481C212.416 416.413 210.391 415.878 208.197 415.878C206.06 415.878 204.035 416.441 202.123 417.566C200.267 418.634 198.748 420.209 197.567 422.29C196.442 424.371 195.88 426.818 195.88 429.63C195.88 432.442 196.442 434.889 197.567 436.97C198.748 439.051 200.267 440.654 202.123 441.779C204.035 442.848 206.06 443.382 208.197 443.382C210.391 443.382 212.416 442.82 214.272 441.695C216.184 440.57 217.703 438.967 218.828 436.886C220.009 434.805 220.6 432.33 220.6 429.461ZM284.697 428.618C284.697 430.305 284.584 431.824 284.359 433.174H250.19C250.471 436.548 251.653 439.192 253.734 441.104C255.815 443.016 258.374 443.973 261.411 443.973C265.798 443.973 268.92 442.088 270.776 438.32H283.515C282.166 442.82 279.578 446.532 275.754 449.457C271.929 452.325 267.232 453.759 261.664 453.759C257.165 453.759 253.115 452.775 249.515 450.806C245.972 448.782 243.188 445.941 241.163 442.285C239.194 438.629 238.21 434.411 238.21 429.63C238.21 424.793 239.194 420.547 241.163 416.891C243.131 413.235 245.887 410.422 249.431 408.454C252.974 406.485 257.052 405.501 261.664 405.501C266.108 405.501 270.073 406.457 273.56 408.369C277.103 410.282 279.831 413.01 281.744 416.553C283.712 420.04 284.697 424.062 284.697 428.618ZM272.463 425.243C272.407 422.206 271.31 419.787 269.173 417.987C267.036 416.131 264.42 415.203 261.327 415.203C258.402 415.203 255.927 416.103 253.902 417.903C251.934 419.647 250.725 422.093 250.275 425.243H272.463ZM319.219 405.585C324.787 405.585 329.287 407.357 332.718 410.901C336.149 414.388 337.864 419.281 337.864 425.581V453H326.053V427.183C326.053 423.471 325.125 420.631 323.268 418.662C321.412 416.638 318.881 415.625 315.675 415.625C312.413 415.625 309.826 416.638 307.914 418.662C306.057 420.631 305.129 423.471 305.129 427.183V453H293.318V406.26H305.129V412.082C306.704 410.057 308.701 408.482 311.119 407.357C313.594 406.176 316.294 405.585 319.219 405.585ZM346.059 429.461C346.059 424.737 346.987 420.547 348.843 416.891C350.755 413.235 353.343 410.422 356.605 408.454C359.867 406.485 363.495 405.501 367.488 405.501C370.526 405.501 373.422 406.176 376.178 407.526C378.934 408.819 381.128 410.563 382.759 412.757V390.568H394.739V453H382.759V446.082C381.296 448.388 379.244 450.244 376.6 451.65C373.956 453.056 370.891 453.759 367.404 453.759C363.467 453.759 359.867 452.747 356.605 450.722C353.343 448.697 350.755 445.857 348.843 442.201C346.987 438.489 346.059 434.242 346.059 429.461ZM382.843 429.63C382.843 426.762 382.281 424.315 381.156 422.29C380.031 420.209 378.512 418.634 376.6 417.566C374.688 416.441 372.635 415.878 370.441 415.878C368.248 415.878 366.223 416.413 364.367 417.481C362.511 418.55 360.992 420.125 359.811 422.206C358.686 424.231 358.123 426.649 358.123 429.461C358.123 432.274 358.686 434.748 359.811 436.886C360.992 438.967 362.511 440.57 364.367 441.695C366.279 442.82 368.304 443.382 370.441 443.382C372.635 443.382 374.688 442.848 376.6 441.779C378.512 440.654 380.031 439.079 381.156 437.055C382.281 434.973 382.843 432.499 382.843 429.63ZM471.069 406.26L457.402 453H444.662L436.141 420.35L427.62 453H414.796L401.044 406.26H413.024L421.292 441.863L430.235 406.26H442.722L451.496 441.779L459.764 406.26H471.069ZM483.45 400.692C481.369 400.692 479.626 400.045 478.22 398.752C476.87 397.402 476.195 395.742 476.195 393.774C476.195 391.805 476.87 390.174 478.22 388.881C479.626 387.531 481.369 386.856 483.45 386.856C485.531 386.856 487.247 387.531 488.597 388.881C490.003 390.174 490.706 391.805 490.706 393.774C490.706 395.742 490.003 397.402 488.597 398.752C487.247 400.045 485.531 400.692 483.45 400.692ZM489.272 406.26V453H477.46V406.26H489.272ZM518.827 453.759C515.003 453.759 511.572 453.084 508.535 451.734C505.497 450.328 503.079 448.444 501.279 446.082C499.535 443.72 498.579 441.104 498.41 438.236H510.306C510.531 440.035 511.403 441.526 512.922 442.707C514.497 443.888 516.437 444.479 518.743 444.479C520.993 444.479 522.736 444.029 523.974 443.129C525.268 442.229 525.914 441.076 525.914 439.67C525.914 438.151 525.127 437.026 523.552 436.295C522.033 435.508 519.587 434.664 516.212 433.764C512.725 432.92 509.856 432.049 507.607 431.149C505.413 430.249 503.501 428.871 501.87 427.015C500.295 425.159 499.507 422.656 499.507 419.506C499.507 416.919 500.238 414.556 501.701 412.419C503.219 410.282 505.357 408.594 508.113 407.357C510.925 406.12 514.215 405.501 517.984 405.501C523.552 405.501 527.995 406.907 531.314 409.719C534.632 412.475 536.46 416.216 536.798 420.94H525.492C525.324 419.084 524.536 417.622 523.13 416.553C521.78 415.428 519.952 414.866 517.646 414.866C515.509 414.866 513.85 415.26 512.669 416.047C511.544 416.834 510.981 417.931 510.981 419.337C510.981 420.912 511.769 422.121 513.344 422.965C514.918 423.753 517.365 424.568 520.684 425.412C524.058 426.255 526.842 427.127 529.036 428.027C531.229 428.927 533.114 430.333 534.689 432.246C536.32 434.102 537.163 436.576 537.22 439.67C537.22 442.37 536.46 444.788 534.942 446.926C533.479 449.063 531.342 450.75 528.53 451.988C525.774 453.169 522.54 453.759 518.827 453.759ZM590.365 428.618C590.365 430.305 590.252 431.824 590.027 433.174H555.858C556.14 436.548 557.321 439.192 559.402 441.104C561.483 443.016 564.042 443.973 567.079 443.973C571.466 443.973 574.588 442.088 576.444 438.32H589.184C587.834 442.82 585.246 446.532 581.422 449.457C577.597 452.325 572.901 453.759 567.332 453.759C562.833 453.759 558.783 452.775 555.183 450.806C551.64 448.782 548.856 445.941 546.831 442.285C544.862 438.629 543.878 434.411 543.878 429.63C543.878 424.793 544.862 420.547 546.831 416.891C548.8 413.235 551.556 410.422 555.099 408.454C558.642 406.485 562.72 405.501 567.332 405.501C571.776 405.501 575.741 406.457 579.228 408.369C582.772 410.282 585.499 413.01 587.412 416.553C589.38 420.04 590.365 424.062 590.365 428.618ZM578.131 425.243C578.075 422.206 576.978 419.787 574.841 417.987C572.704 416.131 570.088 415.203 566.995 415.203C564.07 415.203 561.595 416.103 559.57 417.903C557.602 419.647 556.393 422.093 555.943 425.243H578.131Z" fill="white"/>
<path d="M633.145 874.761C638.826 874.761 643.269 875.971 646.475 878.389C649.681 880.752 651.79 884.098 652.803 888.429H657.274V894.25H653.562C653.618 894.588 653.646 894.925 653.646 895.263C653.646 895.544 653.646 895.825 653.646 896.106C653.646 896.669 653.618 897.231 653.562 897.794C653.562 898.3 653.534 898.778 653.478 899.228H657.274V905.049H652.297C651.453 907.693 650.103 910.055 648.247 912.136C646.391 914.217 643.944 915.849 640.907 917.03C637.87 918.211 634.129 918.801 629.686 918.801H628.083V935H615.512V905.049H610.703V899.228H615.512V894.25H610.703V888.429H615.512V874.761H633.145ZM639.135 905.049H628.083V908.677H629.433C631.739 908.677 633.708 908.396 635.339 907.834C636.97 907.271 638.235 906.343 639.135 905.049ZM640.991 894.25H628.083V899.228H640.991C641.048 898.778 641.076 898.356 641.076 897.963C641.076 897.513 641.076 897.035 641.076 896.528C641.076 896.135 641.076 895.769 641.076 895.432C641.076 895.038 641.048 894.644 640.991 894.25ZM632.555 884.886H628.083V888.429H639.641C639.023 887.304 638.123 886.432 636.942 885.814C635.817 885.195 634.354 884.886 632.555 884.886Z" fill="#73B7FF"/>
<path d="M547.726 771.146C553.937 771.146 558.794 772.468 562.299 775.112C565.804 777.695 568.11 781.353 569.217 786.088H574.105V792.452H570.047C570.108 792.821 570.139 793.19 570.139 793.559C570.139 793.866 570.139 794.173 570.139 794.481C570.139 795.096 570.108 795.711 570.047 796.325C570.047 796.879 570.016 797.402 569.954 797.893H574.105V804.257H568.663C567.741 807.147 566.265 809.73 564.236 812.005C562.207 814.28 559.532 816.063 556.212 817.354C552.891 818.646 548.802 819.291 543.945 819.291H542.192V837H528.45V804.257H523.193V797.893H528.45V792.452H523.193V786.088H528.45V771.146H547.726ZM554.275 804.257H542.192V808.223H543.668C546.189 808.223 548.341 807.916 550.124 807.301C551.908 806.686 553.291 805.672 554.275 804.257ZM556.304 792.452H542.192V797.893H556.304C556.366 797.402 556.396 796.94 556.396 796.51C556.396 796.018 556.396 795.495 556.396 794.942C556.396 794.512 556.396 794.112 556.396 793.743C556.396 793.313 556.366 792.882 556.304 792.452ZM547.081 782.214H542.192V786.088H554.828C554.152 784.858 553.168 783.905 551.877 783.228C550.647 782.552 549.048 782.214 547.081 782.214Z" fill="#73B7FF"/>
<path d="M558.979 944.254C562.444 944.254 565.154 944.992 567.11 946.467C569.066 947.908 570.352 949.95 570.97 952.592H573.697V956.143H571.433C571.467 956.349 571.484 956.554 571.484 956.76C571.484 956.932 571.484 957.103 571.484 957.275C571.484 957.618 571.467 957.961 571.433 958.304C571.433 958.613 571.416 958.905 571.381 959.179H573.697V962.73H570.661C570.146 964.343 569.323 965.784 568.191 967.053C567.058 968.323 565.566 969.318 563.713 970.038C561.861 970.759 559.579 971.119 556.868 971.119H555.891V981H548.222V962.73H545.289V959.179H548.222V956.143H545.289V952.592H548.222V944.254H558.979ZM562.632 962.73H555.891V964.943H556.714C558.121 964.943 559.322 964.772 560.317 964.428C561.312 964.085 562.084 963.519 562.632 962.73ZM563.765 956.143H555.891V959.179H563.765C563.799 958.905 563.816 958.647 563.816 958.407C563.816 958.133 563.816 957.841 563.816 957.532C563.816 957.292 563.816 957.069 563.816 956.863C563.816 956.623 563.799 956.383 563.765 956.143ZM558.618 950.43H555.891V952.592H562.941C562.564 951.906 562.015 951.374 561.294 950.996C560.608 950.619 559.716 950.43 558.618 950.43Z" fill="#73B7FF"/>
<path d="M645.979 775.254C649.444 775.254 652.154 775.992 654.11 777.467C656.066 778.908 657.352 780.95 657.97 783.592H660.697V787.143H658.433C658.467 787.349 658.484 787.554 658.484 787.76C658.484 787.932 658.484 788.103 658.484 788.275C658.484 788.618 658.467 788.961 658.433 789.304C658.433 789.613 658.416 789.905 658.381 790.179H660.697V793.73H657.661C657.146 795.343 656.323 796.784 655.191 798.053C654.058 799.323 652.566 800.318 650.713 801.038C648.861 801.759 646.579 802.119 643.868 802.119H642.891V812H635.222V793.73H632.289V790.179H635.222V787.143H632.289V783.592H635.222V775.254H645.979ZM649.632 793.73H642.891V795.943H643.714C645.121 795.943 646.322 795.772 647.317 795.428C648.312 795.085 649.084 794.519 649.632 793.73ZM650.765 787.143H642.891V790.179H650.765C650.799 789.905 650.816 789.647 650.816 789.407C650.816 789.133 650.816 788.841 650.816 788.532C650.816 788.292 650.816 788.069 650.816 787.863C650.816 787.623 650.799 787.383 650.765 787.143ZM645.618 781.43H642.891V783.592H649.941C649.564 782.906 649.015 782.374 648.294 781.996C647.608 781.619 646.716 781.43 645.618 781.43Z" fill="#73B7FF"/>
<defs>
<clipPath id="clip0_1_111">
<rect width="691" height="1024" fill="white"/>
</clipPath>
</defs>
</svg>
